<?xml version="1.0" encoding="iso-8859-1"?>
<!-- Generator: Adobe Illustrator 16.0.0, SVG Export Plug-In . SVG Version: 6.00 Build 0)  -->
<!DOCTYPE svg PUBLIC "-//W3C//DTD SVG 1.1//EN" "http://www.w3.org/Graphics/SVG/1.1/DTD/svg11.dtd">
<svg version="1.1" id="Capa_1" xmlns="http://www.w3.org/2000/svg" xmlns:xlink="http://www.w3.org/1999/xlink" x="0px" y="0px"
	 width="612px" height="612px" viewBox="0 0 612 612" style="enable-background:new 0 0 612 612;" xml:space="preserve">
<g>
	<g>
		<path d="M601.234,240.498c-7.032-7.032-15.558-10.772-25.43-10.772h-90.634c18.251-32.302,21.658-59.735,11.072-82.855
			c-15.443-33.712-58.625-52.059-129.821-54.439c-45.167-1.506-79.646-7.594-97.813-15.851c-18.027-8.2-26.297-15.271-30.209-22.737
			c-5.96-11.378-1.793-21.237-0.3-25.723l0.9-1.793c4.199-8.398,2.406-18.27-5.086-22.737c-8.066-4.805-18.059-3.171-23.03,4.786
			c-5.5,8.8-9.674,19.45-9.278,36.495c0.204,8.679,2.604,16.802,6.585,24.23c18.455,34.446,70.89,53.15,157.038,56.232
			c55.938,2.004,91.725,14.409,101.099,35.002c10.37,22.774-9.872,55.039-18.544,66.104c-0.899,0.893-1.793,2.093-2.393,3.286
			H36.195C15.851,229.726,0,245.883,0,266.22v308.99c0,20.343,15.851,35.895,36.195,35.895h539.61
			c9.872,0,18.475-3.663,25.43-10.466C608.337,593.684,612,585.382,612,575.21V266.22C612,256.048,608.261,247.529,601.234,240.498z
			 M578.798,575.21c0,2.099-0.899,2.992-2.993,2.992H36.195c-2.093,0-2.993-0.894-2.993-2.992V266.22
			c0-2.393,0.899-3.586,2.993-3.586h539.61c1.2,0,2.993,2.093,2.993,3.586V575.21L578.798,575.21z"/>
		<path d="M479.792,326.345h-16.157c-6.88,0-12.858,5.979-12.858,12.864v15.852c0,6.879,5.979,12.858,12.858,12.858h16.157
			c6.879,0,12.858-5.979,12.858-12.858v-15.852C492.65,332.325,486.671,326.345,479.792,326.345z"/>
		<path d="M479.792,408.6h-16.157c-6.88,0-12.858,5.986-12.858,12.865v15.851c0,6.879,5.979,12.865,12.858,12.865h16.157
			c6.879,0,12.858-5.986,12.858-12.865v-15.851C492.65,414.586,486.671,408.6,479.792,408.6z"/>
		<path d="M423.254,409.2h15.257c7.479,0,13.459-5.979,13.459-12.858v-16.157c0-6.879-5.979-12.858-13.459-12.858h-15.257
			c-7.18,0-12.858,5.68-12.858,12.858v16.157C410.396,403.521,416.074,409.2,423.254,409.2z"/>
		<path d="M381.079,367.919h15.258c7.179,0,12.858-5.68,12.858-12.858v-15.852c0-7.179-5.68-12.864-12.858-12.864h-15.258
			c-7.179,0-12.858,5.686-12.858,12.864v15.852C368.221,362.24,373.9,367.919,381.079,367.919z"/>
		<path d="M396.337,408.6h-15.258c-7.179,0-12.858,5.686-12.858,12.865v15.851c0,7.18,5.68,12.865,12.858,12.865h15.258
			c7.179,0,12.858-5.686,12.858-12.865v-15.851C409.195,414.286,403.516,408.6,396.337,408.6z"/>
		<path d="M340.099,409.2h15.857c6.879,0,12.858-5.979,12.858-12.858v-16.157c0-6.879-5.979-12.858-12.858-12.858h-15.857
			c-6.879,0-12.858,5.979-12.858,12.858v16.157C327.24,403.221,333.22,409.2,340.099,409.2z"/>
		<path d="M298.225,367.919h15.551c7.18,0,12.865-5.68,12.865-12.858v-15.852c0-7.179-5.686-12.864-12.865-12.864h-15.551
			c-7.179,0-12.865,5.686-12.865,12.864v15.852C285.359,362.24,291.045,367.919,298.225,367.919z"/>
		<path d="M313.775,408.6h-15.551c-7.179,0-12.865,5.686-12.865,12.865v15.851c0,7.18,5.686,12.865,12.865,12.865h15.551
			c7.18,0,12.865-5.686,12.865-12.865v-15.851C326.641,414.286,320.955,408.6,313.775,408.6z"/>
		<path d="M243.785,396.341c0,6.88,5.979,12.858,12.858,12.858h15.858c7.179,0,12.858-5.679,12.858-12.858v-16.157
			c0-7.179-5.679-12.858-12.858-12.858h-15.858c-6.879,0-12.858,5.979-12.858,12.858V396.341z"/>
		<path d="M215.069,367.919h15.851c6.879,0,12.865-5.979,12.865-12.858v-15.852c0-6.885-5.985-12.864-12.865-12.864h-15.851
			c-6.879,0-12.865,5.979-12.865,12.864v15.852C202.205,361.94,208.19,367.919,215.069,367.919z"/>
		<path d="M230.92,408.6h-15.851c-6.879,0-12.865,5.986-12.865,12.865v15.851c0,6.879,5.986,12.865,12.865,12.865h15.851
			c6.879,0,12.865-5.986,12.865-12.865v-15.851C243.785,414.586,237.8,408.6,230.92,408.6z"/>
		<path d="M174.089,409.2h15.257c7.179,0,12.858-5.679,12.858-12.858v-16.157c0-7.179-5.679-12.858-12.858-12.858h-15.257
			c-7.179,0-12.865,5.68-12.865,12.858v16.157C161.224,403.521,166.91,409.2,174.089,409.2z"/>
		<path d="M448.983,505.82h-285.96c-9.272,0-16.451,7.473-16.451,16.751c0,9.271,7.179,16.451,16.451,16.451h285.96
			c9.271,0,16.751-7.18,16.751-16.451C465.734,513.292,458.255,505.82,448.983,505.82z"/>
		<path d="M132.214,367.919h15.551c7.179,0,12.865-5.68,12.865-12.858v-15.852c0-7.179-5.686-12.864-12.865-12.864h-15.551
			c-7.179,0-12.865,5.686-12.865,12.864v15.852C119.35,362.24,125.036,367.919,132.214,367.919z"/>
		<path d="M160.63,437.316v-15.851c0-7.18-5.686-12.865-12.865-12.865h-15.551c-7.179,0-12.865,5.686-12.865,12.865v15.851
			c0,7.18,5.686,12.865,12.865,12.865h15.551C154.945,450.181,160.63,444.496,160.63,437.316z"/>
	</g>
</g>
<g>
</g>
<g>
</g>
<g>
</g>
<g>
</g>
<g>
</g>
<g>
</g>
<g>
</g>
<g>
</g>
<g>
</g>
<g>
</g>
<g>
</g>
<g>
</g>
<g>
</g>
<g>
</g>
<g>
</g>
</svg>
